<mxfile host="app.diagrams.net" modified="2023-06-11T16:53:47.638Z" agent="Mozilla/5.0 (Windows NT 10.0; Win64; x64) AppleWebKit/537.36 (KHTML, like Gecko) Chrome/108.0.0.0 YaBrowser/23.1.2.928 Yowser/2.5 Safari/537.36" etag="c4rLhQxPxUZz6SzhgnvP" version="21.3.7" type="device">
  <diagram name="Page-1" id="929967ad-93f9-6ef4-fab6-5d389245f69c">
    <mxGraphModel dx="1042" dy="489" grid="1" gridSize="10" guides="1" tooltips="1" connect="1" arrows="1" fold="1" page="1" pageScale="1.5" pageWidth="1169" pageHeight="826" background="none" math="0" shadow="0">
      <root>
        <mxCell id="0" style=";html=1;" />
        <mxCell id="1" style=";html=1;" parent="0" />
        <mxCell id="1672d66443f91eb5-1" value="&lt;p style=&quot;margin: 0px ; margin-top: 4px ; margin-left: 10px ; text-align: left&quot;&gt;&lt;b&gt;Генератор экзаменационных билетов&lt;/b&gt;&lt;/p&gt;" style="html=1;strokeWidth=1;shape=mxgraph.sysml.package;html=1;overflow=fill;whiteSpace=wrap;fillColor=none;gradientColor=none;fontSize=12;align=center;labelX=327.64;" parent="1" vertex="1">
          <mxGeometry x="480" y="90" width="950" height="1200" as="geometry" />
        </mxCell>
        <mxCell id="1672d66443f91eb5-23" value="Приложение" style="text;strokeColor=none;fillColor=none;html=1;fontSize=24;fontStyle=1;verticalAlign=middle;align=center;" parent="1" vertex="1">
          <mxGeometry x="120" y="40" width="1510" height="40" as="geometry" />
        </mxCell>
        <mxCell id="Vq5NTBLWGCEwuZ2N-13A-18" style="edgeStyle=orthogonalEdgeStyle;rounded=0;orthogonalLoop=1;jettySize=auto;html=1;exitX=1;exitY=0.3333333333333333;exitDx=0;exitDy=0;exitPerimeter=0;entryX=0;entryY=0.513;entryDx=0;entryDy=0;entryPerimeter=0;" parent="1" source="Vq5NTBLWGCEwuZ2N-13A-12" target="Vq5NTBLWGCEwuZ2N-13A-13" edge="1">
          <mxGeometry relative="1" as="geometry">
            <Array as="points">
              <mxPoint x="460" y="391" />
            </Array>
          </mxGeometry>
        </mxCell>
        <mxCell id="Vq5NTBLWGCEwuZ2N-13A-12" value="Пользователь" style="shape=umlActor;verticalLabelPosition=bottom;verticalAlign=top;html=1;" parent="1" vertex="1">
          <mxGeometry x="430" y="370" width="30" height="60" as="geometry" />
        </mxCell>
        <mxCell id="km4N7CKSfjVp_Z7hOhBR-10" style="edgeStyle=none;curved=1;rounded=0;orthogonalLoop=1;jettySize=auto;html=1;fontSize=12;startSize=8;endSize=8;" parent="1" source="Vq5NTBLWGCEwuZ2N-13A-13" target="Vq5NTBLWGCEwuZ2N-13A-16" edge="1">
          <mxGeometry relative="1" as="geometry" />
        </mxCell>
        <mxCell id="km4N7CKSfjVp_Z7hOhBR-26" value="&amp;lt;&amp;lt;exclude&amp;gt;&amp;gt;" style="edgeLabel;html=1;align=center;verticalAlign=middle;resizable=0;points=[];fontSize=16;" parent="km4N7CKSfjVp_Z7hOhBR-10" vertex="1" connectable="0">
          <mxGeometry x="0.152" relative="1" as="geometry">
            <mxPoint as="offset" />
          </mxGeometry>
        </mxCell>
        <mxCell id="Vq5NTBLWGCEwuZ2N-13A-13" value="Авторизация" style="shape=umlBoundary;whiteSpace=wrap;html=1;" parent="1" vertex="1">
          <mxGeometry x="790" y="360" width="120" height="60" as="geometry" />
        </mxCell>
        <mxCell id="km4N7CKSfjVp_Z7hOhBR-1" style="edgeStyle=none;curved=1;rounded=0;orthogonalLoop=1;jettySize=auto;html=1;fontSize=12;startSize=8;endSize=8;" parent="1" source="Vq5NTBLWGCEwuZ2N-13A-14" target="Vq5NTBLWGCEwuZ2N-13A-13" edge="1">
          <mxGeometry relative="1" as="geometry" />
        </mxCell>
        <mxCell id="km4N7CKSfjVp_Z7hOhBR-24" value="&amp;lt;&amp;lt;include&amp;gt;&amp;gt;" style="edgeLabel;html=1;align=center;verticalAlign=middle;resizable=0;points=[];fontSize=16;" parent="km4N7CKSfjVp_Z7hOhBR-1" vertex="1" connectable="0">
          <mxGeometry x="0.3922" y="2" relative="1" as="geometry">
            <mxPoint as="offset" />
          </mxGeometry>
        </mxCell>
        <mxCell id="Vq5NTBLWGCEwuZ2N-13A-14" value="Регистрация" style="shape=umlBoundary;whiteSpace=wrap;html=1;" parent="1" vertex="1">
          <mxGeometry x="780" y="190" width="130" height="49" as="geometry" />
        </mxCell>
        <mxCell id="Vq5NTBLWGCEwuZ2N-13A-16" value="Формирование билета" style="shape=umlBoundary;whiteSpace=wrap;html=1;" parent="1" vertex="1">
          <mxGeometry x="690" y="526" width="135" height="60" as="geometry" />
        </mxCell>
        <mxCell id="Vq5NTBLWGCEwuZ2N-13A-23" value="" style="endArrow=classic;html=1;rounded=0;exitX=1;exitY=0.3333333333333333;exitDx=0;exitDy=0;exitPerimeter=0;entryX=0.041;entryY=0.522;entryDx=0;entryDy=0;entryPerimeter=0;" parent="1" source="Vq5NTBLWGCEwuZ2N-13A-12" target="Vq5NTBLWGCEwuZ2N-13A-14" edge="1">
          <mxGeometry width="50" height="50" relative="1" as="geometry">
            <mxPoint x="390" y="580" as="sourcePoint" />
            <mxPoint x="500" y="560" as="targetPoint" />
            <Array as="points" />
          </mxGeometry>
        </mxCell>
        <mxCell id="Vq5NTBLWGCEwuZ2N-13A-37" value="Редактирование записей в таблицах" style="ellipse;whiteSpace=wrap;html=1;" parent="1" vertex="1">
          <mxGeometry x="1025" y="650" width="125" height="66" as="geometry" />
        </mxCell>
        <mxCell id="km4N7CKSfjVp_Z7hOhBR-25" style="edgeStyle=none;curved=1;rounded=0;orthogonalLoop=1;jettySize=auto;html=1;fontSize=12;startSize=8;endSize=8;" parent="1" target="Vq5NTBLWGCEwuZ2N-13A-13" edge="1">
          <mxGeometry relative="1" as="geometry">
            <mxPoint x="1460" y="390" as="sourcePoint" />
          </mxGeometry>
        </mxCell>
        <mxCell id="Vq5NTBLWGCEwuZ2N-13A-41" value="Администратор" style="shape=umlActor;verticalLabelPosition=bottom;verticalAlign=top;html=1;outlineConnect=0;" parent="1" vertex="1">
          <mxGeometry x="1460" y="370" width="30" height="60" as="geometry" />
        </mxCell>
        <mxCell id="wgYnYfyt50UQaqVbDYK3-3" value="Удаление записей в таблицах&lt;br&gt;" style="ellipse;whiteSpace=wrap;html=1;" parent="1" vertex="1">
          <mxGeometry x="1240" y="440" width="125" height="66" as="geometry" />
        </mxCell>
        <mxCell id="wgYnYfyt50UQaqVbDYK3-4" value="Просмотр записей в таблицах" style="ellipse;whiteSpace=wrap;html=1;" parent="1" vertex="1">
          <mxGeometry x="900" y="554" width="125" height="66" as="geometry" />
        </mxCell>
        <mxCell id="wgYnYfyt50UQaqVbDYK3-5" value="Добавление записей в таблицы" style="ellipse;whiteSpace=wrap;html=1;" parent="1" vertex="1">
          <mxGeometry x="1150" y="554" width="125" height="66" as="geometry" />
        </mxCell>
        <mxCell id="wgYnYfyt50UQaqVbDYK3-7" value="Закрытие программы" style="ellipse;whiteSpace=wrap;html=1;" parent="1" vertex="1">
          <mxGeometry x="1025" y="840" width="125" height="66" as="geometry" />
        </mxCell>
        <mxCell id="km4N7CKSfjVp_Z7hOhBR-15" value="" style="endArrow=classic;html=1;rounded=0;fontSize=12;startSize=8;endSize=8;curved=1;entryX=0.017;entryY=0.664;entryDx=0;entryDy=0;entryPerimeter=0;" parent="1" target="wgYnYfyt50UQaqVbDYK3-7" edge="1">
          <mxGeometry relative="1" as="geometry">
            <mxPoint x="760" y="590" as="sourcePoint" />
            <mxPoint x="1025.0000666343653" y="873.1433143751177" as="targetPoint" />
            <Array as="points">
              <mxPoint x="759.26" y="735.08" />
              <mxPoint x="757.26" y="815.08" />
              <mxPoint x="760" y="884" />
              <mxPoint x="770" y="884" />
            </Array>
          </mxGeometry>
        </mxCell>
        <mxCell id="km4N7CKSfjVp_Z7hOhBR-16" value="&amp;lt;&amp;lt;exclude&amp;gt;&amp;gt;" style="edgeLabel;resizable=0;html=1;align=center;verticalAlign=middle;fontSize=16;" parent="km4N7CKSfjVp_Z7hOhBR-15" connectable="0" vertex="1">
          <mxGeometry relative="1" as="geometry">
            <mxPoint x="-2" y="-24" as="offset" />
          </mxGeometry>
        </mxCell>
        <mxCell id="km4N7CKSfjVp_Z7hOhBR-21" value="" style="endArrow=classic;html=1;rounded=0;fontSize=12;startSize=8;endSize=8;curved=1;entryX=0;entryY=0.5;entryDx=0;entryDy=0;exitX=1;exitY=0.5;exitDx=0;exitDy=0;" parent="1" source="wgYnYfyt50UQaqVbDYK3-4" target="wgYnYfyt50UQaqVbDYK3-5" edge="1">
          <mxGeometry relative="1" as="geometry">
            <mxPoint x="1018.5876727620677" y="600.0000053445549" as="sourcePoint" />
            <mxPoint x="1140.0000000000018" y="631.44" as="targetPoint" />
            <Array as="points">
              <mxPoint x="1080" y="590" />
            </Array>
          </mxGeometry>
        </mxCell>
        <mxCell id="km4N7CKSfjVp_Z7hOhBR-22" value="&amp;lt;&amp;lt;exclude&amp;gt;&amp;gt;" style="edgeLabel;resizable=0;html=1;align=center;verticalAlign=middle;fontSize=16;" parent="km4N7CKSfjVp_Z7hOhBR-21" connectable="0" vertex="1">
          <mxGeometry relative="1" as="geometry">
            <mxPoint x="4" y="-26" as="offset" />
          </mxGeometry>
        </mxCell>
        <mxCell id="km4N7CKSfjVp_Z7hOhBR-27" value="" style="endArrow=classic;html=1;rounded=0;fontSize=12;startSize=8;endSize=8;curved=1;entryX=0.035;entryY=0.332;entryDx=0;entryDy=0;entryPerimeter=0;" parent="1" target="wgYnYfyt50UQaqVbDYK3-4" edge="1">
          <mxGeometry relative="1" as="geometry">
            <mxPoint x="824.9976727620676" y="560.0000053445549" as="sourcePoint" />
            <mxPoint x="946.4100000000019" y="591.44" as="targetPoint" />
          </mxGeometry>
        </mxCell>
        <mxCell id="km4N7CKSfjVp_Z7hOhBR-28" value="&amp;lt;&amp;lt;exclude&amp;gt;&amp;gt;" style="edgeLabel;resizable=0;html=1;align=center;verticalAlign=middle;fontSize=16;" parent="km4N7CKSfjVp_Z7hOhBR-27" connectable="0" vertex="1">
          <mxGeometry relative="1" as="geometry">
            <mxPoint x="4" y="-26" as="offset" />
          </mxGeometry>
        </mxCell>
        <mxCell id="km4N7CKSfjVp_Z7hOhBR-29" value="" style="endArrow=classic;html=1;rounded=0;fontSize=12;startSize=8;endSize=8;curved=1;entryX=0;entryY=1;entryDx=0;entryDy=0;" parent="1" target="wgYnYfyt50UQaqVbDYK3-3" edge="1">
          <mxGeometry relative="1" as="geometry">
            <mxPoint x="1018.5876727620677" y="568.5600053445548" as="sourcePoint" />
            <mxPoint x="1140.0000000000018" y="600" as="targetPoint" />
          </mxGeometry>
        </mxCell>
        <mxCell id="km4N7CKSfjVp_Z7hOhBR-30" value="&amp;lt;&amp;lt;exclude&amp;gt;&amp;gt;" style="edgeLabel;resizable=0;html=1;align=center;verticalAlign=middle;fontSize=16;" parent="km4N7CKSfjVp_Z7hOhBR-29" connectable="0" vertex="1">
          <mxGeometry relative="1" as="geometry">
            <mxPoint x="4" y="-26" as="offset" />
          </mxGeometry>
        </mxCell>
        <mxCell id="km4N7CKSfjVp_Z7hOhBR-31" value="" style="endArrow=classic;html=1;rounded=0;fontSize=12;startSize=8;endSize=8;curved=1;exitX=0.56;exitY=1;exitDx=0;exitDy=0;exitPerimeter=0;entryX=0;entryY=0;entryDx=0;entryDy=0;" parent="1" source="wgYnYfyt50UQaqVbDYK3-4" target="Vq5NTBLWGCEwuZ2N-13A-37" edge="1">
          <mxGeometry relative="1" as="geometry">
            <mxPoint x="953.7076727620677" y="640.0000053445549" as="sourcePoint" />
            <mxPoint x="1060" y="655" as="targetPoint" />
          </mxGeometry>
        </mxCell>
        <mxCell id="km4N7CKSfjVp_Z7hOhBR-32" value="&amp;lt;&amp;lt;exclude&amp;gt;&amp;gt;" style="edgeLabel;resizable=0;html=1;align=center;verticalAlign=middle;fontSize=16;" parent="km4N7CKSfjVp_Z7hOhBR-31" connectable="0" vertex="1">
          <mxGeometry relative="1" as="geometry">
            <mxPoint x="4" y="-2" as="offset" />
          </mxGeometry>
        </mxCell>
        <mxCell id="km4N7CKSfjVp_Z7hOhBR-33" value="" style="endArrow=classic;html=1;rounded=0;fontSize=12;startSize=8;endSize=8;curved=1;entryX=0.5;entryY=0;entryDx=0;entryDy=0;exitX=0.5;exitY=1;exitDx=0;exitDy=0;" parent="1" source="Vq5NTBLWGCEwuZ2N-13A-37" target="wgYnYfyt50UQaqVbDYK3-7" edge="1">
          <mxGeometry relative="1" as="geometry">
            <mxPoint x="1069.9976727620676" y="750.0000053445549" as="sourcePoint" />
            <mxPoint x="1092.91" y="808.0919999999999" as="targetPoint" />
          </mxGeometry>
        </mxCell>
        <mxCell id="km4N7CKSfjVp_Z7hOhBR-34" value="&amp;lt;&amp;lt;exclude&amp;gt;&amp;gt;" style="edgeLabel;resizable=0;html=1;align=center;verticalAlign=middle;fontSize=16;" parent="km4N7CKSfjVp_Z7hOhBR-33" connectable="0" vertex="1">
          <mxGeometry relative="1" as="geometry">
            <mxPoint x="10" y="-1" as="offset" />
          </mxGeometry>
        </mxCell>
        <mxCell id="km4N7CKSfjVp_Z7hOhBR-35" value="" style="endArrow=classic;html=1;rounded=0;fontSize=12;startSize=8;endSize=8;curved=1;entryX=0.73;entryY=0.074;entryDx=0;entryDy=0;entryPerimeter=0;exitX=0.418;exitY=0.991;exitDx=0;exitDy=0;exitPerimeter=0;" parent="1" source="wgYnYfyt50UQaqVbDYK3-5" target="wgYnYfyt50UQaqVbDYK3-7" edge="1">
          <mxGeometry relative="1" as="geometry">
            <mxPoint x="1189.9976727620676" y="666.0000053445549" as="sourcePoint" />
            <mxPoint x="1311.410000000002" y="697.44" as="targetPoint" />
            <Array as="points">
              <mxPoint x="1200" y="760" />
              <mxPoint x="1200" y="830" />
            </Array>
          </mxGeometry>
        </mxCell>
        <mxCell id="km4N7CKSfjVp_Z7hOhBR-36" value="&amp;lt;&amp;lt;exclude&amp;gt;&amp;gt;" style="edgeLabel;resizable=0;html=1;align=center;verticalAlign=middle;fontSize=16;" parent="km4N7CKSfjVp_Z7hOhBR-35" connectable="0" vertex="1">
          <mxGeometry relative="1" as="geometry">
            <mxPoint x="4" y="-26" as="offset" />
          </mxGeometry>
        </mxCell>
        <mxCell id="km4N7CKSfjVp_Z7hOhBR-37" value="" style="endArrow=classic;html=1;rounded=0;fontSize=12;startSize=8;endSize=8;curved=1;entryX=1.027;entryY=0.636;entryDx=0;entryDy=0;exitX=0.62;exitY=0.998;exitDx=0;exitDy=0;exitPerimeter=0;entryPerimeter=0;" parent="1" source="wgYnYfyt50UQaqVbDYK3-3" target="wgYnYfyt50UQaqVbDYK3-7" edge="1">
          <mxGeometry relative="1" as="geometry">
            <mxPoint x="1284.9976727620676" y="494.5600053445549" as="sourcePoint" />
            <mxPoint x="1406.410000000002" y="526" as="targetPoint" />
            <Array as="points">
              <mxPoint x="1320" y="610" />
              <mxPoint x="1320" y="710" />
              <mxPoint x="1320" y="810" />
              <mxPoint x="1320" y="860" />
              <mxPoint x="1320" y="882" />
              <mxPoint x="1240" y="880" />
            </Array>
          </mxGeometry>
        </mxCell>
        <mxCell id="km4N7CKSfjVp_Z7hOhBR-38" value="&amp;lt;&amp;lt;exclude&amp;gt;&amp;gt;" style="edgeLabel;resizable=0;html=1;align=center;verticalAlign=middle;fontSize=16;" parent="km4N7CKSfjVp_Z7hOhBR-37" connectable="0" vertex="1">
          <mxGeometry relative="1" as="geometry">
            <mxPoint x="4" y="-26" as="offset" />
          </mxGeometry>
        </mxCell>
        <mxCell id="km4N7CKSfjVp_Z7hOhBR-39" value="" style="endArrow=classic;html=1;rounded=0;fontSize=12;startSize=8;endSize=8;curved=1;exitX=0.442;exitY=1.001;exitDx=0;exitDy=0;exitPerimeter=0;" parent="1" source="wgYnYfyt50UQaqVbDYK3-4" target="wgYnYfyt50UQaqVbDYK3-7" edge="1">
          <mxGeometry relative="1" as="geometry">
            <mxPoint x="829.9976727620676" y="660.0000053445549" as="sourcePoint" />
            <mxPoint x="951.4100000000019" y="691.44" as="targetPoint" />
          </mxGeometry>
        </mxCell>
        <mxCell id="km4N7CKSfjVp_Z7hOhBR-40" value="&amp;lt;&amp;lt;exclude&amp;gt;&amp;gt;" style="edgeLabel;resizable=0;html=1;align=center;verticalAlign=middle;fontSize=16;" parent="km4N7CKSfjVp_Z7hOhBR-39" connectable="0" vertex="1">
          <mxGeometry relative="1" as="geometry">
            <mxPoint x="-57" y="-26" as="offset" />
          </mxGeometry>
        </mxCell>
        <mxCell id="wUb-uQat2RB5yq6N8O-q-1" value="" style="endArrow=classic;html=1;rounded=0;fontSize=12;startSize=8;endSize=8;curved=1;entryX=0.5;entryY=0;entryDx=0;entryDy=0;" edge="1" parent="1" source="Vq5NTBLWGCEwuZ2N-13A-13" target="wgYnYfyt50UQaqVbDYK3-4">
          <mxGeometry relative="1" as="geometry">
            <mxPoint x="899.9976727620676" y="424.0000053445549" as="sourcePoint" />
            <mxPoint x="979" y="440" as="targetPoint" />
          </mxGeometry>
        </mxCell>
        <mxCell id="wUb-uQat2RB5yq6N8O-q-2" value="&amp;lt;&amp;lt;exclude&amp;gt;&amp;gt;" style="edgeLabel;resizable=0;html=1;align=center;verticalAlign=middle;fontSize=16;" connectable="0" vertex="1" parent="wUb-uQat2RB5yq6N8O-q-1">
          <mxGeometry relative="1" as="geometry">
            <mxPoint x="4" y="-26" as="offset" />
          </mxGeometry>
        </mxCell>
        <mxCell id="wUb-uQat2RB5yq6N8O-q-5" value="" style="endArrow=classic;html=1;rounded=0;exitX=1;exitY=0.25;exitDx=0;exitDy=0;exitPerimeter=0;entryX=0.994;entryY=0.566;entryDx=0;entryDy=0;entryPerimeter=0;" edge="1" parent="1" source="1672d66443f91eb5-1" target="Vq5NTBLWGCEwuZ2N-13A-14">
          <mxGeometry width="50" height="50" relative="1" as="geometry">
            <mxPoint x="1090" y="350" as="sourcePoint" />
            <mxPoint x="1140" y="300" as="targetPoint" />
          </mxGeometry>
        </mxCell>
      </root>
    </mxGraphModel>
  </diagram>
</mxfile>
